<?xml version="1.0" encoding="utf-8"?>
<!-- Generator: Adobe Illustrator 25.2.1, SVG Export Plug-In . SVG Version: 6.00 Build 0)  -->
<svg version="1.1" id="Layer_1" xmlns="http://www.w3.org/2000/svg" xmlns:xlink="http://www.w3.org/1999/xlink" x="0px" y="0px"
	 viewBox="0 0 1080 1080" style="enable-background:new 0 0 1080 1080;" xml:space="preserve">
<style type="text/css">
	.st0{fill:#CD985C;}
</style>
<g>
	<g>
		<path class="st0" d="M637.3,217.05c-2.11-18.47-7.37-35.07-18.92-49.62c-21.81-33.02-70.47-49.7-106.09-36.38l0,0
			c-21.93,4.89-39.26,16.61-52.11,35.01l0,0c-20.24,26.33-24.11,55.71-16.24,87.27l0,0v0c13.94,45.5,50.58,72.38,97.84,72.71
			c26.13,0.18,46.85-11.25,65.66-27.78c0,0,0,0,0,0c0,0,0,0,0,0c2.77-2.19,5.35-4.54,7-7.73c1.1-1.23,2.2-2.47,3.29-3.7
			c4.75-5.58,8.89-11.53,11.27-18.54l0,0c2.35-6.43,7.31-12.05,6.05-19.59C637.7,238.27,638.57,228.09,637.3,217.05z"/>
		<path class="st0" d="M461.22,807.11C461.22,807.11,461.22,807.11,461.22,807.11c3.32-15.17,6.75-30.33,6.73-45.99
			c3.25-22.97,4.13-45.94,0.04-68.91c0-0.01,0-0.01,0-0.02c-2.35-17.61-5.34-35.02-15.05-50.43c-1.34-5.85-4.93-10.62-8.29-15.27
			c-4.15-5.74-6.29-13.43-14.03-16.07c-1.16-2.8-3.25-4.72-5.84-6.17c0,0,0,0,0,0c-3.49-7.51-9.41-12.63-16.44-16.65v0
			c-4.5-4.71-9.95-8.09-15.53-11.32c-32.27-18.64-67.28-21.12-103.32-17.66c-26.61,1.73-51.57,11.31-77.51,16.24c0,0,0.01,0,0.01,0
			c0,0-0.01,0-0.01,0c-12.83,0.89-16.92,8.07-10.92,19.09c1.93,3.55,4.4,6.66,7.45,9.32c26.36,22.99,57.24,32.54,91.88,30.91
			c11.39,0.12,22.8-0.06,34.18,0.4c35.36,1.43,63,24.2,69.1,57.87c2.28,12.61,2.17,25.65,3.14,38.49c0.01,2.67,0.02,5.34,0.03,8.01
			c-0.52,8.01-1.19,16.03,1.12,23.91c0.15,4.29,0.31,8.58,0.46,12.86c0,0,0,0,0,0c0,0,0,0,0,0c-0.03,4.01-0.45,8.05-0.03,12.01
			c3.71,34.99,8.98,69.7,18.86,103.57c1.54,2.97,0,7.28,4.46,9.83c1.01-3.64,1.89-6.79,2.76-9.94l0,0
			C446.4,864.12,455.36,836.11,461.22,807.11z M467.57,725.59c-0.07-0.07-0.12-0.14-0.19-0.21c0.07-0.04,0.13-0.06,0.2-0.11
			C467.57,725.39,467.57,725.49,467.57,725.59C467.57,725.59,467.57,725.6,467.57,725.59C467.57,725.6,467.57,725.59,467.57,725.59z
			 M409.68,749.4c-0.01,0.08-0.02,0.15-0.03,0.22c-0.04-0.08-0.05-0.15-0.09-0.22C409.61,749.4,409.64,749.4,409.68,749.4z"/>
		<path class="st0" d="M1036.34,247.67c-11.48-8.61-23.09-2.88-33.89,2.74c-21.02,10.96-41.85,22.3-62.75,33.48
			c-1.56,0.81-3.11,1.62-4.67,2.44c-0.39,0.01-0.72,0.14-0.94,0.49c0,0,0,0,0,0l0,0c-25.19,10.3-50.52,20.19-76.73,27.67
			c-1.54,0.09-3.17-0.14-4.6,0.3c-32.81,9.98-66.78,13.68-100.5,18.78c-27.66,4.19-55.55,7.45-82.09,17.07c0,0,0,0,0,0c0,0,0,0,0,0
			c-14.98,4.34-29.12,10.64-42.66,18.33c-19.08,9.31-38.06,18.86-58.23,25.69c-35.97,8.23-70.07,2.42-101.29-16.36
			c-49.19-29.59-103.48-40.5-159.34-47.09c-44.86-5.29-88.65-15.45-131.24-30.8c-18.86-6.8-36.6-16.15-55.37-23.07c0,0,0,0,0,0
			c0,0,0,0,0,0l0,0c0,0.04,0.01,0.08,0.01,0.12c-17.99-10-35.77-20.43-54.12-29.71c-5.29-2.67-11.62-5.87-18.39-3.34c0,0,0,0,0,0
			c-9.99,3.11-14.77,8.76-15.12,19.18c-0.7,20.35,5.78,38.68,16.6,55.66c0.15,2.34,1.7,3.73,3.43,4.98
			c1.51,4.57,4.38,8.22,7.82,11.47c0.18,2.75,2.36,4.32,3.93,6.1c46.86,53.18,107.75,73.44,176.55,75.07v0l0,0
			c8.65,0.29,17.3,0.87,25.95,0.8c26.01-0.21,52-0.17,78,0.86c52.03,2.08,99.85,16.2,141.37,48.69c2.26,1.95,4.52,3.9,6.79,5.85
			c4.51,4.41,9.02,8.81,13.53,13.22c0,0,0,0,0,0c0,0,0,0,0,0c11.92,16.13,23.8,32.28,31.43,53.74c5.09-14.61,11.74-25.5,17.22-36.98
			c19.05-27.99,44.42-48.57,74.55-63.58l0,0c17.19-6.82,34.97-11.68,52.93-15.94c1.01-0.05,2.03-0.29,2.99-0.71
			c15.31-1.42,30.48-3.95,45.9-4.6c32.05-1.36,64.1-0.21,96.14-0.86c10.09-0.2,20.35,1.18,30.27-1.97
			c7.45,0.51,14.7-0.91,21.99-2.13c27.86-4.68,54.19-13.44,79.03-27.2c10.64-5.89,19.88-13.3,29.23-20.77
			c18.28-15.42,33.63-33.11,42.87-55.51c5.58-8.93,8.78-18.79,10.97-28.99C1046.52,268.6,1047.61,256.12,1036.34,247.67z
			 M546.33,487.85c0.06,0.06,0.13,0.12,0.19,0.17c-0.13,0.01-0.23,0.02-0.36,0.03C546.23,487.99,546.27,487.93,546.33,487.85z"/>
		<path class="st0" d="M438.4,117.83c6.3,0.64,12.92,0.57,15.63-6.59c2.76-7.28-3.87-9.28-8.2-12.38c-0.75-0.54-1.51-1.07-2.2-1.68
			c-4.23-3.7-4.9-7.05,1.04-9.64c5.29-2.3,10.61-4.56,15.91-6.83c0,0,0,0,0,0c0,0,0,0,0,0c15.8-2.83,31.59-5.66,47.39-8.49
			c1.59,0.16,3.09-0.22,4.6-0.82c29.98-0.94,59.96-1.26,89.42,5.47c13,2.97,26.95,4.09,36.93,14.81c0.07,4.59-3.7,5.87-6.69,7.88
			c-3.61,2.42-9.15,3.85-6.94,9.98c1.91,5.29,5.78,8.28,11.85,8.37c13.86,0.2,25.66-4.25,35.09-14.57l0,0l0,0c0,0,0,0,0,0l0,0
			c13.71-16.16,13.69-29.16-0.08-42.6c0,0,0,0,0,0c0,0,0,0,0,0c-7.55-7.64-16.19-13.61-26.35-17.28
			c-65.06-23.56-130.73-23.24-196.85-4.98c0,0,0,0,0,0c0,0,0,0,0,0c-11.79,3.37-23.35,7.28-33.33,14.74
			c-18.24,12.45-23.93,28.86-14.39,43.53C409.86,110,422.96,116.27,438.4,117.83z M433.35,72.22c0.02,0.06,0.03,0.12,0.05,0.18
			c-0.11-0.01-0.22-0.02-0.33-0.03C433.16,72.32,433.25,72.27,433.35,72.22z"/>
		<path class="st0" d="M953.35,437.38c-4.68,1.56-9.41,3.01-13.98,4.86c-26.78,10.82-54.21,18.23-83.32,19.84
			c-31.54,1.74-63.09,0.12-94.6,1.7c-5.31-0.59-10.53-0.07-15.67,1.32c-2.86,0.18-5.73,0.37-8.59,0.55c0,0,0,0,0,0
			c-25.94,3.37-51.43,8.42-75.2,19.93c0,0,0,0,0,0c-8.11,2.38-15.65,5.93-22.46,10.97l0,0c-28.57,15.51-49.94,37.97-64.46,67l0,0
			c0,0,0,0,0,0c-2.28,3.82-4.57,7.64-6.85,11.47c-5.79,8.92-8.87,18.79-10.37,29.24c-2.39,16.74-8.25,33.09-7.08,49.78
			c-1.95-13.07-6.39-25.69-12.35-34.47c-5.69-11.73-9.23-24.47-16.78-35.32l0,0c-2.49-3.84-4.97-7.69-7.46-11.53c0,0,0,0,0,0
			c-0.32-3.57-2.74-6.11-4.58-8.88c-27.57-41.5-65.11-69.97-112.35-85.69c-3.09-1.21-6.09-2.81-9.29-3.57
			c-13.27-3.15-26.6-6.05-39.9-9.04c-10.61-0.7-20.84-4.12-31.6-4.02c-24.78,0.21-49.57,0.52-74.34-0.12
			c-12.91-0.33-25.9,0.12-38.77-1.61c-5.6,1.54-11.11-3.45-16.73-0.21c-2.82-0.39-3.87-4.63-7.42-3.42
			c-9.22-3.03-18.44-6.06-27.66-9.09l0,0c0,0,0,0,0,0c-9.03-3.48-17.98-7.19-27.12-10.36c-5.09-1.76-10.53-3.19-15.52,0.74
			c0,0,0,0,0,0c-7.74,3.25-8.29,10.05-8.15,16.99c0.2,10.3,5.47,18.83,10.15,27.53c1.61,4.07,4.29,7.3,7.23,10.56
			c18.45,20.41,42.99,28.61,68.82,31.76c28.25,3.45,56.33-1.09,83.75-8.8c0.68-0.56,1.36-1.12,2.04-1.67
			c3.69-0.34,7.38-0.59,11.06-1.03c36.28-4.39,72.18-4.06,107.03,8.79c28.04,10.33,51.43,27.8,73.02,47.97
			c1.08,1.48,2.05,3.08,3.27,4.43c31.89,35.16,51.61,75.72,54.98,123.56c1.09,21.82-0.46,43.54-2.55,65.24
			c-0.83,0.97-1.23,2.65-0.75,3.25c-6.39,28.56-16.06,55.98-28.97,82.27c-10.04,15.94-20.07,31.88-30.11,47.83l-0.07,0
			c-6.74,8.79-13.44,17.62-20.26,26.34c-1.51,1.93-1.86,3.76-0.99,5.99c3.57,9.17,7.1,18.35,10.65,27.53c0,0,0,0,0,0c0,0,0,0,0,0
			c-0.21,3.24,1.77,5.86,2.46,8.82c1.76,7.57,5.35,8.17,10.3,2.88c10.26-10.98,22.03-20.66,29.6-33.99
			c3.54-4.57,7.31-8.99,10.58-13.75c7.99-11.6,16.3-23.03,21.26-36.4c0,0,0,0,0,0c10.7-18.77,19.71-38.23,24.28-59.5
			c8.7-25.99,13.68-52.64,14.35-80.07l0,0c0.22-3.07,0.51-6.14,0.66-9.22c1.1-23.43,1.95-46.88,6.66-69.96
			c5.44-26.67,17.68-50.39,32.09-73.14c21.22-26.71,45.24-50.12,76.57-64.9c0,0,0,0,0,0c42.95-18.75,87.42-19.69,132.78-11.79
			c24.04,4.18,48.03,9.35,72.7,7.91c21.56-1.26,42.28-5.26,60.18-18.46c12.66-7.86,23.53-17.44,29.87-31.33v0
			c1.45-2.97,3.34-5.82,4.27-8.95c2.42-8.08,4.41-16.43-2.04-23.64C969.24,433.36,961.29,434.75,953.35,437.38z M463.98,894.74
			C463.99,894.74,463.99,894.74,463.98,894.74C463.99,894.74,463.99,894.74,463.98,894.74
			C463.98,894.75,463.98,894.74,463.98,894.74z M755.03,465.7c0.06-0.11,0.07-0.25-0.03-0.42C754.41,464.23,756,465.05,755.03,465.7
			z"/>
		<path class="st0" d="M869.44,574.24c-14.88-2.68-29.49-6.41-44.17-9.89c-41.63-9.87-82.95-11.47-123.39,5.58h0c0,0,0,0,0,0
			c-7.42,2.63-14.22,6.4-20.47,11.16l0,0c-29.36,19.33-49.63,45.47-59.5,79.4c0,0,0,0,0,0c0,0,0,0,0,0
			c-0.65,1.35-1.51,2.65-1.92,4.07c-8.05,27.94-8.19,56.54-6.97,85.25c-0.01,16.03-0.01,32.06-0.02,48.09c0,0,0,0,0,0c0,0,0,0,0,0
			c-0.2,3.07-0.4,6.14-0.59,9.21c-2.77,5.09-1.75,10.83-2.59,16.23c-2.69,17.29-7.7,34-11.92,50.9c-2.35,6.03-4.59,12.11-7.08,18.09
			c-5.19,12.5-10.52,24.94-15.79,37.4c-5.36,5.68-7.82,13.12-11.76,19.66c-15.16,25.15-34.07,47.19-54.76,67.82
			c-11.04,9.25-11.49,18.03-1.13,27.82c7,6.61,15.47,9.76,25.17,9.32l0,0c13.97,1.83,26.15-2.59,36.97-11.04
			c17.66-13.79,31.67-30.74,42.51-50.33c2.86-4.72,5.9-9.33,8.53-14.17c10.34-18.98,20.41-38.09,25.8-59.23c0,0,0,0,0,0
			c0.56-1.06,1.28-2.07,1.66-3.2c10.4-30.71,17.38-62.22,21.82-94.31l0,0c3.89-28.81,5.84-57.75,5.99-86.82
			c0.08-15.13,0.12-30.27,3.13-45.2c4.13-19.72,15.23-34.47,32.47-44.51c16.83-9.8,35.39-11.62,54.48-11.5
			c12.24,0.08,24.63,2.14,36.77-1.3c0,0,0,0,0,0c23.65-0.95,44.15-10.5,63.18-23.66c6.54-4.52,13.23-9.22,15.79-17.48
			C882.96,580.02,880.72,576.27,869.44,574.24z"/>
	</g>
</g>
</svg>
