<svg id="Layer_1" data-name="Layer 1" xmlns="http://www.w3.org/2000/svg" viewBox="0 0 332.57 338.58"><defs><style>.cls-1{fill:#e4aa70;}</style></defs><path class="cls-1" d="M329.64,191.07c-.7-6.08-2.43-11.53-6.22-16.32-7.18-10.86-23.18-16.35-34.89-12h0a27.48,27.48,0,0,0-17.14,11.51h0c-6.66,8.66-7.93,18.32-5.34,28.7h0c4.58,15,16.63,23.8,32.17,23.91,8.6.06,15.41-3.7,21.6-9.14h0a8,8,0,0,0,2.3-2.54L323.2,214a18.72,18.72,0,0,0,3.71-6.1h0c.77-2.11,2.4-4,2-6.44A28.29,28.29,0,0,0,329.64,191.07Z" transform="translate(-131.35 -127.99)"/><path class="cls-1" d="M271.73,385.12h0c1.09-5,2.22-10,2.21-15.13a71.47,71.47,0,0,0,0-22.66h0c-.77-5.79-1.76-11.51-4.95-16.58a14,14,0,0,0-2.73-5c-1.36-1.89-2.06-4.42-4.61-5.29a4.16,4.16,0,0,0-1.92-2h0a12.41,12.41,0,0,0-5.41-5.48h0a22.31,22.31,0,0,0-5.11-3.72c-10.61-6.13-22.12-6.94-34-5.81-8.76.57-17,3.72-25.49,5.34h0c-4.21.3-5.56,2.66-3.59,6.28a11.21,11.21,0,0,0,2.45,3.07c8.67,7.56,18.83,10.7,30.22,10.16,3.74,0,7.5,0,11.24.13,11.62.47,20.71,8,22.72,19,.75,4.15.71,8.44,1,12.66,0,.88,0,1.76,0,2.64a22.35,22.35,0,0,0,.37,7.86l.15,4.23h0a34.71,34.71,0,0,0,0,3.95,194,194,0,0,0,6.21,34.06c.5,1,0,2.4,1.46,3.23l.91-3.26h0A134.24,134.24,0,0,0,271.73,385.12Zm2.09-26.81-.07-.07.07,0v.1Zm-19,7.83v.07l0-.07Z" transform="translate(-131.35 -127.99)"/><path class="cls-1" d="M460.87,201.14c-3.78-2.84-7.6-.95-11.15.9-6.91,3.6-13.76,7.33-20.64,11l-1.53.8a.37.37,0,0,0-.31.16h0a242.35,242.35,0,0,1-25.23,9.1,6.9,6.9,0,0,0-1.52.1c-10.79,3.28-22,4.5-33.05,6.17-9.09,1.38-18.27,2.45-27,5.62h0a65,65,0,0,0-14,6c-6.28,3.06-12.52,6.21-19.15,8.45A43.73,43.73,0,0,1,274,244.09c-16.18-9.73-34-13.32-52.41-15.48a193.8,193.8,0,0,1-43.16-10.13c-6.2-2.24-12-5.31-18.21-7.59h0a.08.08,0,0,1,0,0c-5.92-3.28-11.76-6.72-17.8-9.77-1.74-.88-3.82-1.93-6-1.1h0c-3.28,1-4.85,2.89-5,6.31-.23,6.7,1.9,12.72,5.46,18.31a2.19,2.19,0,0,0,1.13,1.63,9.11,9.11,0,0,0,2.57,3.78c.06.9.78,1.42,1.29,2,15.41,17.49,35.44,24.15,58.06,24.69h0c2.85.09,5.69.29,8.54.26,8.55-.07,17.1-.05,25.65.29,17.11.68,32.84,5.32,46.49,16l2.23,1.92,4.45,4.35h0c3.92,5.3,7.83,10.62,10.34,17.67,1.67-4.8,3.86-8.39,5.66-12.16a62.67,62.67,0,0,1,24.52-20.91h0a125.76,125.76,0,0,1,17.4-5.24,2.87,2.87,0,0,0,1-.24c5-.46,10-1.29,15.09-1.51,10.54-.45,21.08-.07,31.62-.28,3.32-.07,6.69.39,9.95-.65a30.93,30.93,0,0,0,7.24-.7,80.78,80.78,0,0,0,26-8.94,71.05,71.05,0,0,0,9.61-6.83c6-5.07,11.06-10.89,14.1-18.26a29.46,29.46,0,0,0,3.6-9.53C464.21,208,464.57,203.92,460.87,201.14Zm-161.15,79,.06.05-.12,0Z" transform="translate(-131.35 -127.99)"/><path class="cls-1" d="M264.22,158.44c2.08.21,4.25.18,5.15-2.17s-1.28-3.05-2.7-4.07c-.25-.18-.5-.36-.73-.55-1.39-1.22-1.61-2.32.35-3.17,1.74-.76,3.49-1.5,5.23-2.25h0l15.58-2.79a3.21,3.21,0,0,0,1.52-.27c9.86-.31,19.72-.42,29.41,1.8,4.27,1,8.86,1.34,12.14,4.87,0,1.5-1.22,1.93-2.2,2.59-1.19.79-3,1.26-2.28,3.28a3.86,3.86,0,0,0,3.89,2.75,14.56,14.56,0,0,0,11.55-4.79h0c4.5-5.31,4.5-9.59,0-14h0a23.19,23.19,0,0,0-8.67-5.68c-21.39-7.75-43-7.64-64.73-1.64h0c-3.88,1.11-7.68,2.39-11,4.85-6,4.1-7.87,9.49-4.73,14.32C254.84,155.86,259.15,157.92,264.22,158.44Zm-1.66-15,0,.06h-.11Z" transform="translate(-131.35 -127.99)"/><path class="cls-1" d="M433.58,263.53c-1.54.51-3.1,1-4.6,1.6a85.5,85.5,0,0,1-27.4,6.52c-10.37.57-20.75,0-31.11.56a14,14,0,0,0-5.15.43l-2.83.18h0c-8.53,1.11-16.91,2.77-24.73,6.56h0a23.21,23.21,0,0,0-7.39,3.61h0a49.78,49.78,0,0,0-21.2,22h0l-2.25,3.77a23.49,23.49,0,0,0-3.41,9.62c-.79,5.5-2.71,10.88-2.33,16.37a28.28,28.28,0,0,0-4.06-11.33c-1.87-3.86-3-8.05-5.52-11.62h0L289.15,308h0a6.45,6.45,0,0,0-1.51-2.92,69.46,69.46,0,0,0-36.94-28.18,23.81,23.81,0,0,0-3.06-1.18c-4.36-1-8.74-2-13.12-3-3.49-.23-6.85-1.35-10.39-1.32-8.15.07-16.3.17-24.45,0a118,118,0,0,1-12.75-.53c-1.84.51-3.65-1.14-5.5-.07-.93-.13-1.27-1.52-2.44-1.12l-9.1-3h0c-3-1.15-5.91-2.37-8.92-3.41-1.67-.58-3.46-1.05-5.1.24h0c-2.55,1.07-2.73,3.31-2.68,5.59.06,3.39,1.8,6.19,3.33,9.05a11.59,11.59,0,0,0,2.38,3.48c6.07,6.71,14.14,9.41,22.63,10.44,9.3,1.14,18.53-.36,27.55-2.89l.67-.55c1.21-.11,2.43-.19,3.63-.34,11.94-1.45,23.74-1.34,35.2,2.89,9.22,3.4,16.92,9.14,24,15.77a15.64,15.64,0,0,0,1.07,1.46c10.49,11.56,17,24.9,18.09,40.64a149.27,149.27,0,0,1-.84,21.45c-.27.32-.41.87-.25,1.07a120.83,120.83,0,0,1-9.53,27.05l-9.9,15.73h0c-2.22,2.89-4.42,5.8-6.66,8.67a1.82,1.82,0,0,0-.33,2q1.75,4.52,3.5,9.05h0c-.07,1.06.59,1.93.81,2.9.58,2.49,1.76,2.69,3.39.95,3.37-3.62,7.24-6.8,9.73-11.18,1.17-1.5,2.41-3,3.48-4.52,2.63-3.82,5.36-7.58,7-12h0a68.7,68.7,0,0,0,8-19.57,89.45,89.45,0,0,0,4.72-26.33h0c.07-1,.17-2,.22-3,.36-7.71.64-15.42,2.18-23,1.79-8.77,5.82-16.57,10.56-24.05,7-8.79,14.88-16.49,25.18-21.35h0c14.12-6.16,28.75-6.47,43.67-3.87,7.9,1.37,15.79,3.07,23.9,2.6,7.09-.42,13.91-1.73,19.8-6.08,4.16-2.58,7.73-5.73,9.82-10.3h0a19.24,19.24,0,0,0,1.4-2.94c.8-2.66,1.45-5.4-.67-7.77S436.18,262.66,433.58,263.53ZM272.64,413.94Zm95.71-141.1a.14.14,0,0,0,0-.14C368.15,272.36,368.67,272.63,368.35,272.84Z" transform="translate(-131.35 -127.99)"/><path class="cls-1" d="M406,308.54c-4.89-.89-9.7-2.11-14.53-3.26-13.69-3.24-27.28-3.77-40.58,1.84h0a24.6,24.6,0,0,0-6.73,3.67h0a45.82,45.82,0,0,0-19.57,26.11h0a9,9,0,0,0-.63,1.34c-2.65,9.19-2.7,18.6-2.29,28v15.81h0c-.06,1-.13,2-.19,3-.91,1.67-.58,3.56-.86,5.34-.88,5.69-2.53,11.18-3.92,16.74-.77,2-1.51,4-2.32,5.95-1.71,4.11-3.46,8.2-5.2,12.3-1.76,1.87-2.57,4.31-3.86,6.46a117.65,117.65,0,0,1-18,22.31c-3.63,3-3.78,5.93-.37,9.14a10.87,10.87,0,0,0,8.27,3.07h0a15.84,15.84,0,0,0,12.16-3.63,53.68,53.68,0,0,0,14-16.55c.94-1.55,1.94-3.07,2.81-4.66,3.4-6.24,6.71-12.53,8.48-19.48h0a6.58,6.58,0,0,0,.55-1.05,168.23,168.23,0,0,0,7.18-31h0a221.59,221.59,0,0,0,2-28.55,75.52,75.52,0,0,1,1-14.86A21.41,21.41,0,0,1,354,332c5.54-3.23,11.64-3.82,17.92-3.78,4,0,8.1.7,12.09-.43h0c7.78-.31,14.52-3.45,20.78-7.78,2.15-1.49,4.35-3,5.2-5.75C410.43,310.44,409.69,309.2,406,308.54Z" transform="translate(-131.35 -127.99)"/></svg>
